<?xml version="1.0" encoding="utf-8"?>
<!-- Generator: Adobe Illustrator 24.0.2, SVG Export Plug-In . SVG Version: 6.00 Build 0)  -->
<svg version="1.1" id="Layer_1" xmlns="http://www.w3.org/2000/svg" xmlns:xlink="http://www.w3.org/1999/xlink" x="0px" y="0px"
	 viewBox="0 0 19.2 19.2" style="enable-background:new 0 0 19.2 19.2;" xml:space="preserve">
<style type="text/css">
	.st0{fill:#231F20;}
</style>
<path class="st0" d="M9.6,7.9c-0.9,0-1.7,0.8-1.7,1.7c0,0.9,0.8,1.7,1.7,1.7s1.7-0.8,1.7-1.7C11.3,8.7,10.5,7.9,9.6,7.9z M9.6,7.9
	c-0.9,0-1.7,0.8-1.7,1.7c0,0.9,0.8,1.7,1.7,1.7s1.7-0.8,1.7-1.7C11.3,8.7,10.5,7.9,9.6,7.9z M13.7,7.6c0-0.3-0.1-0.6-0.2-0.9
	c-0.2-0.4-0.5-0.8-1-1c-0.3-0.1-0.6-0.2-0.9-0.2c-0.5,0-0.7,0-2,0s-1.5,0-2,0C7.3,5.5,7,5.6,6.7,5.7c-0.4,0.2-0.8,0.5-1,1
	C5.6,7,5.5,7.3,5.5,7.6c0,0.5,0,0.7,0,2s0,1.5,0,2c0,0.3,0.1,0.6,0.2,0.9c0.2,0.4,0.5,0.8,1,1c0.3,0.1,0.6,0.2,0.9,0.2
	c0.5,0,0.7,0,2,0s1.5,0,2,0c0.3,0,0.6-0.1,0.9-0.2c0.4-0.2,0.8-0.5,1-1c0.1-0.3,0.2-0.6,0.2-0.9c0-0.5,0-0.7,0-2S13.7,8.1,13.7,7.6z
	 M11.4,11.4c-0.5,0.5-1.1,0.8-1.8,0.8C8.2,12.2,7,11,7,9.6S8.2,7,9.6,7s2.6,1.1,2.6,2.6C12.2,10.3,11.9,11,11.4,11.4z M12.3,7.5
	c-0.3,0-0.6-0.3-0.6-0.6c0-0.3,0.3-0.6,0.6-0.6s0.6,0.3,0.6,0.6C12.9,7.3,12.6,7.5,12.3,7.5z M9.6,7.9c-0.9,0-1.7,0.8-1.7,1.7
	c0,0.9,0.8,1.7,1.7,1.7s1.7-0.8,1.7-1.7C11.3,8.7,10.5,7.9,9.6,7.9z M9.6,7.9c-0.9,0-1.7,0.8-1.7,1.7c0,0.9,0.8,1.7,1.7,1.7
	s1.7-0.8,1.7-1.7C11.3,8.7,10.5,7.9,9.6,7.9z M9.6,7.9c-0.9,0-1.7,0.8-1.7,1.7c0,0.9,0.8,1.7,1.7,1.7s1.7-0.8,1.7-1.7
	C11.3,8.7,10.5,7.9,9.6,7.9z M9.6,7.9c-0.9,0-1.7,0.8-1.7,1.7c0,0.9,0.8,1.7,1.7,1.7s1.7-0.8,1.7-1.7C11.3,8.7,10.5,7.9,9.6,7.9z
	 M9.6,7.9c-0.9,0-1.7,0.8-1.7,1.7c0,0.9,0.8,1.7,1.7,1.7s1.7-0.8,1.7-1.7C11.3,8.7,10.5,7.9,9.6,7.9z M13.7,7.6
	c0-0.3-0.1-0.6-0.2-0.9c-0.2-0.4-0.5-0.8-1-1c-0.3-0.1-0.6-0.2-0.9-0.2c-0.5,0-0.7,0-2,0s-1.5,0-2,0C7.3,5.5,7,5.6,6.7,5.7
	c-0.4,0.2-0.8,0.5-1,1C5.6,7,5.5,7.3,5.5,7.6c0,0.5,0,0.7,0,2s0,1.5,0,2c0,0.3,0.1,0.6,0.2,0.9c0.2,0.4,0.5,0.8,1,1
	c0.3,0.1,0.6,0.2,0.9,0.2c0.5,0,0.7,0,2,0s1.5,0,2,0c0.3,0,0.6-0.1,0.9-0.2c0.4-0.2,0.8-0.5,1-1c0.1-0.3,0.2-0.6,0.2-0.9
	c0-0.5,0-0.7,0-2S13.7,8.1,13.7,7.6z M11.4,11.4c-0.5,0.5-1.1,0.8-1.8,0.8C8.2,12.2,7,11,7,9.6S8.2,7,9.6,7s2.6,1.1,2.6,2.6
	C12.2,10.3,11.9,11,11.4,11.4z M12.3,7.5c-0.3,0-0.6-0.3-0.6-0.6c0-0.3,0.3-0.6,0.6-0.6s0.6,0.3,0.6,0.6C12.9,7.3,12.6,7.5,12.3,7.5
	z M9.6,7.9c-0.9,0-1.7,0.8-1.7,1.7c0,0.9,0.8,1.7,1.7,1.7s1.7-0.8,1.7-1.7C11.3,8.7,10.5,7.9,9.6,7.9z M13.7,7.6
	c0-0.3-0.1-0.6-0.2-0.9c-0.2-0.4-0.5-0.8-1-1c-0.3-0.1-0.6-0.2-0.9-0.2c-0.5,0-0.7,0-2,0s-1.5,0-2,0C7.3,5.5,7,5.6,6.7,5.7
	c-0.4,0.2-0.8,0.5-1,1C5.6,7,5.5,7.3,5.5,7.6c0,0.5,0,0.7,0,2s0,1.5,0,2c0,0.3,0.1,0.6,0.2,0.9c0.2,0.4,0.5,0.8,1,1
	c0.3,0.1,0.6,0.2,0.9,0.2c0.5,0,0.7,0,2,0s1.5,0,2,0c0.3,0,0.6-0.1,0.9-0.2c0.4-0.2,0.8-0.5,1-1c0.1-0.3,0.2-0.6,0.2-0.9
	c0-0.5,0-0.7,0-2S13.7,8.1,13.7,7.6z M11.4,11.4c-0.5,0.5-1.1,0.8-1.8,0.8C8.2,12.2,7,11,7,9.6S8.2,7,9.6,7s2.6,1.1,2.6,2.6
	C12.2,10.3,11.9,11,11.4,11.4z M12.3,7.5c-0.3,0-0.6-0.3-0.6-0.6c0-0.3,0.3-0.6,0.6-0.6s0.6,0.3,0.6,0.6C12.9,7.3,12.6,7.5,12.3,7.5
	z M9.6,7.9c-0.9,0-1.7,0.8-1.7,1.7c0,0.9,0.8,1.7,1.7,1.7s1.7-0.8,1.7-1.7C11.3,8.7,10.5,7.9,9.6,7.9z M9.6,0C4.3,0,0,4.3,0,9.6
	s4.3,9.6,9.6,9.6s9.6-4.3,9.6-9.6S14.9,0,9.6,0z M14.6,11.7c0,0.4-0.1,0.8-0.2,1.2c-0.3,0.7-0.8,1.2-1.5,1.5
	c-0.4,0.1-0.8,0.2-1.2,0.2c-0.5,0-0.7,0-2.1,0s-1.5,0-2.1,0c-0.4,0-0.8-0.1-1.2-0.2c-0.7-0.3-1.2-0.8-1.5-1.5
	c-0.1-0.4-0.2-0.8-0.2-1.2c0-0.5,0-0.7,0-2.1s0-1.5,0-2.1c0-0.4,0.1-0.8,0.2-1.2c0.3-0.7,0.8-1.2,1.5-1.5c0.4-0.1,0.8-0.2,1.2-0.2
	c0.5,0,0.7,0,2.1,0s1.5,0,2.1,0c0.4,0,0.8,0.1,1.2,0.2c0.7,0.3,1.2,0.8,1.5,1.5c0.1,0.4,0.2,0.8,0.2,1.2c0,0.5,0,0.7,0,2.1
	S14.6,11.1,14.6,11.7z M13.5,6.7c-0.2-0.4-0.5-0.8-1-1c-0.3-0.1-0.6-0.2-0.9-0.2c-0.5,0-0.7,0-2,0s-1.5,0-2,0C7.3,5.5,7,5.6,6.7,5.7
	c-0.4,0.2-0.8,0.5-1,1C5.6,7,5.5,7.3,5.5,7.6c0,0.5,0,0.7,0,2s0,1.5,0,2c0,0.3,0.1,0.6,0.2,0.9c0.2,0.4,0.5,0.8,1,1
	c0.3,0.1,0.6,0.2,0.9,0.2c0.5,0,0.7,0,2,0s1.5,0,2,0c0.3,0,0.6-0.1,0.9-0.2c0.4-0.2,0.8-0.5,1-1c0.1-0.3,0.2-0.6,0.2-0.9
	c0-0.5,0-0.7,0-2s0-1.5,0-2C13.7,7.3,13.6,7,13.5,6.7z M11.4,11.4c-0.5,0.5-1.1,0.8-1.8,0.8C8.2,12.2,7,11,7,9.6S8.2,7,9.6,7
	s2.6,1.1,2.6,2.6C12.2,10.3,11.9,11,11.4,11.4z M12.3,7.5c-0.3,0-0.6-0.3-0.6-0.6c0-0.3,0.3-0.6,0.6-0.6s0.6,0.3,0.6,0.6
	C12.9,7.3,12.6,7.5,12.3,7.5z M9.6,7.9c-0.9,0-1.7,0.8-1.7,1.7c0,0.9,0.8,1.7,1.7,1.7s1.7-0.8,1.7-1.7C11.3,8.7,10.5,7.9,9.6,7.9z
	 M9.6,7.9c-0.9,0-1.7,0.8-1.7,1.7c0,0.9,0.8,1.7,1.7,1.7s1.7-0.8,1.7-1.7C11.3,8.7,10.5,7.9,9.6,7.9z M9.6,7.9
	c-0.9,0-1.7,0.8-1.7,1.7c0,0.9,0.8,1.7,1.7,1.7s1.7-0.8,1.7-1.7C11.3,8.7,10.5,7.9,9.6,7.9z M13.7,7.6c0-0.3-0.1-0.6-0.2-0.9
	c-0.2-0.4-0.5-0.8-1-1c-0.3-0.1-0.6-0.2-0.9-0.2c-0.5,0-0.7,0-2,0s-1.5,0-2,0C7.3,5.5,7,5.6,6.7,5.7c-0.4,0.2-0.8,0.5-1,1
	C5.6,7,5.5,7.3,5.5,7.6c0,0.5,0,0.7,0,2s0,1.5,0,2c0,0.3,0.1,0.6,0.2,0.9c0.2,0.4,0.5,0.8,1,1c0.3,0.1,0.6,0.2,0.9,0.2
	c0.5,0,0.7,0,2,0s1.5,0,2,0c0.3,0,0.6-0.1,0.9-0.2c0.4-0.2,0.8-0.5,1-1c0.1-0.3,0.2-0.6,0.2-0.9c0-0.5,0-0.7,0-2S13.7,8.1,13.7,7.6z
	 M11.4,11.4c-0.5,0.5-1.1,0.8-1.8,0.8C8.2,12.2,7,11,7,9.6S8.2,7,9.6,7s2.6,1.1,2.6,2.6C12.2,10.3,11.9,11,11.4,11.4z M12.3,7.5
	c-0.3,0-0.6-0.3-0.6-0.6c0-0.3,0.3-0.6,0.6-0.6s0.6,0.3,0.6,0.6C12.9,7.3,12.6,7.5,12.3,7.5z M9.6,7.9c-0.9,0-1.7,0.8-1.7,1.7
	c0,0.9,0.8,1.7,1.7,1.7s1.7-0.8,1.7-1.7C11.3,8.7,10.5,7.9,9.6,7.9z M9.6,7.9c-0.9,0-1.7,0.8-1.7,1.7c0,0.9,0.8,1.7,1.7,1.7
	s1.7-0.8,1.7-1.7C11.3,8.7,10.5,7.9,9.6,7.9z M9.6,7.9c-0.9,0-1.7,0.8-1.7,1.7c0,0.9,0.8,1.7,1.7,1.7s1.7-0.8,1.7-1.7
	C11.3,8.7,10.5,7.9,9.6,7.9z M13.7,7.6c0-0.3-0.1-0.6-0.2-0.9c-0.2-0.4-0.5-0.8-1-1c-0.3-0.1-0.6-0.2-0.9-0.2c-0.5,0-0.7,0-2,0
	s-1.5,0-2,0C7.3,5.5,7,5.6,6.7,5.7c-0.4,0.2-0.8,0.5-1,1C5.6,7,5.5,7.3,5.5,7.6c0,0.5,0,0.7,0,2s0,1.5,0,2c0,0.3,0.1,0.6,0.2,0.9
	c0.2,0.4,0.5,0.8,1,1c0.3,0.1,0.6,0.2,0.9,0.2c0.5,0,0.7,0,2,0s1.5,0,2,0c0.3,0,0.6-0.1,0.9-0.2c0.4-0.2,0.8-0.5,1-1
	c0.1-0.3,0.2-0.6,0.2-0.9c0-0.5,0-0.7,0-2S13.7,8.1,13.7,7.6z M11.4,11.4c-0.5,0.5-1.1,0.8-1.8,0.8C8.2,12.2,7,11,7,9.6S8.2,7,9.6,7
	s2.6,1.1,2.6,2.6C12.2,10.3,11.9,11,11.4,11.4z M12.3,7.5c-0.3,0-0.6-0.3-0.6-0.6c0-0.3,0.3-0.6,0.6-0.6s0.6,0.3,0.6,0.6
	C12.9,7.3,12.6,7.5,12.3,7.5z M9.6,7.9c-0.9,0-1.7,0.8-1.7,1.7c0,0.9,0.8,1.7,1.7,1.7s1.7-0.8,1.7-1.7C11.3,8.7,10.5,7.9,9.6,7.9z
	 M9.6,7.9c-0.9,0-1.7,0.8-1.7,1.7c0,0.9,0.8,1.7,1.7,1.7s1.7-0.8,1.7-1.7C11.3,8.7,10.5,7.9,9.6,7.9z M9.6,7.9
	c-0.9,0-1.7,0.8-1.7,1.7c0,0.9,0.8,1.7,1.7,1.7s1.7-0.8,1.7-1.7C11.3,8.7,10.5,7.9,9.6,7.9z M9.6,7.9c-0.9,0-1.7,0.8-1.7,1.7
	c0,0.9,0.8,1.7,1.7,1.7s1.7-0.8,1.7-1.7C11.3,8.7,10.5,7.9,9.6,7.9z M9.6,7.9c-0.9,0-1.7,0.8-1.7,1.7c0,0.9,0.8,1.7,1.7,1.7
	s1.7-0.8,1.7-1.7C11.3,8.7,10.5,7.9,9.6,7.9z M9.6,7.9c-0.9,0-1.7,0.8-1.7,1.7c0,0.9,0.8,1.7,1.7,1.7s1.7-0.8,1.7-1.7
	C11.3,8.7,10.5,7.9,9.6,7.9z M9.6,7.9c-0.9,0-1.7,0.8-1.7,1.7c0,0.9,0.8,1.7,1.7,1.7s1.7-0.8,1.7-1.7C11.3,8.7,10.5,7.9,9.6,7.9z
	 M13.7,7.6c0-0.3-0.1-0.6-0.2-0.9c-0.2-0.4-0.5-0.8-1-1c-0.3-0.1-0.6-0.2-0.9-0.2c-0.5,0-0.7,0-2,0s-1.5,0-2,0
	C7.3,5.5,7,5.6,6.7,5.7c-0.4,0.2-0.8,0.5-1,1C5.6,7,5.5,7.3,5.5,7.6c0,0.5,0,0.7,0,2s0,1.5,0,2c0,0.3,0.1,0.6,0.2,0.9
	c0.2,0.4,0.5,0.8,1,1c0.3,0.1,0.6,0.2,0.9,0.2c0.5,0,0.7,0,2,0s1.5,0,2,0c0.3,0,0.6-0.1,0.9-0.2c0.4-0.2,0.8-0.5,1-1
	c0.1-0.3,0.2-0.6,0.2-0.9c0-0.5,0-0.7,0-2S13.7,8.1,13.7,7.6z M11.4,11.4c-0.5,0.5-1.1,0.8-1.8,0.8C8.2,12.2,7,11,7,9.6S8.2,7,9.6,7
	s2.6,1.1,2.6,2.6C12.2,10.3,11.9,11,11.4,11.4z M12.3,7.5c-0.3,0-0.6-0.3-0.6-0.6c0-0.3,0.3-0.6,0.6-0.6s0.6,0.3,0.6,0.6
	C12.9,7.3,12.6,7.5,12.3,7.5z M9.6,7.9c-0.9,0-1.7,0.8-1.7,1.7c0,0.9,0.8,1.7,1.7,1.7s1.7-0.8,1.7-1.7C11.3,8.7,10.5,7.9,9.6,7.9z
	 M9.6,7.9c-0.9,0-1.7,0.8-1.7,1.7c0,0.9,0.8,1.7,1.7,1.7s1.7-0.8,1.7-1.7C11.3,8.7,10.5,7.9,9.6,7.9z M9.6,7.9
	c-0.9,0-1.7,0.8-1.7,1.7c0,0.9,0.8,1.7,1.7,1.7s1.7-0.8,1.7-1.7C11.3,8.7,10.5,7.9,9.6,7.9z"/>
</svg>
