<?xml version="1.0" encoding="utf-8"?>
<!-- Generator: Adobe Illustrator 24.0.2, SVG Export Plug-In . SVG Version: 6.00 Build 0)  -->
<svg version="1.1" id="Layer_1" xmlns="http://www.w3.org/2000/svg" xmlns:xlink="http://www.w3.org/1999/xlink" x="0px" y="0px"
	 viewBox="0 0 1024 1024" style="enable-background:new 0 0 1024 1024;" xml:space="preserve">
<style type="text/css">
	.st0{fill:#FFFFFF;}
</style>
<path class="st0" d="M512,0C229.3,0,0,229.3,0,512s229.2,512,512,512s512-229.2,512-512S794.7,0,512,0z M758,386
	c0.3,5.4,0.3,11,0.3,16.5c0,167.8-127.8,361-361.2,361c-72,0-138.7-20.9-195-56.9c10.3,1.1,20.1,1.6,30.6,1.6
	c59.4,0,114.1-20.1,157.6-54.2c-55.8-1.1-102.6-37.7-118.6-88c19.5,2.9,37.1,2.9,57.3-2.3c-59.2-12-101.7-64.1-101.6-124.6v-1.6
	c16.8,9.5,36.6,15.3,57.3,16.1c-35.3-23.5-56.6-63.2-56.6-105.6c0-23.7,6.2-45.3,17.3-64c64.5,79.3,159.7,127.5,261.7,132.7
	c-17.9-86.3,46.5-156.1,124-156.1c36.6,0,69.5,15.3,92.7,40c28.7-5.4,56.1-16.1,80.6-30.5c-9.5,29.4-29.4,54.2-55.8,69.8
	c25.6-2.7,50.3-9.8,73.1-19.8C804.4,345.5,782.8,368,758,386L758,386z"/>
</svg>
